<?xml version="1.0" encoding="UTF-8" standalone="no"?>
<svg width="128px" height="128px" viewBox="0 0 128 128" version="1.1" xmlns="http://www.w3.org/2000/svg" xmlns:xlink="http://www.w3.org/1999/xlink" xmlns:sketch="http://www.bohemiancoding.com/sketch/ns">
    <!-- Generator: Sketch 3.3 (11970) - http://www.bohemiancoding.com/sketch -->
    <title>icon</title>
    <desc>Created with Sketch.</desc>
    <defs>
        <radialGradient cx="50%" cy="0%" fx="50%" fy="0%" r="346.222951%" id="radialGradient-1">
            <stop stop-color="#7BAC48" offset="0%"></stop>
            <stop stop-color="#000000" offset="100%"></stop>
        </radialGradient>
    </defs>
    <g id="Page-1" stroke="none" stroke-width="1" fill="none" fill-rule="evenodd" sketch:type="MSPage">
        <g id="icon" sketch:type="MSLayerGroup">
            <rect id="Rectangle-1" fill="url(#radialGradient-1)" sketch:type="MSShapeGroup" x="0" y="0" width="128" height="128"></rect>
            <text id="ATTACHMENT--FILE-ICO" sketch:type="MSTextLayer" font-family="Wawati SC" font-size="11.5" font-weight="normal" sketch:alignment="middle" fill="#FFFFFF">
                <tspan x="24.59525" y="104">ATTACHMENT </tspan>
                <tspan x="31.34" y="120">FILE ICONS</tspan>
            </text>
            <g id="Group" transform="translate(24.000000, 9.000000)" fill="#FFFFFF" sketch:type="MSShapeGroup">
                <path d="M23,32.3333333 L21.3333333,32.3333333 L23,34 L33,34 L33,14 L13,14 L13,24 L14.6666667,25.6666667 L14.6666667,24 L21.3333333,24 L23,24 L23,25.6666667 L23,32.3333333 L23,32.3333333 Z M21.3333333,25.6666667 L14.6666667,25.6666667 L21.3333333,32.3333333 L21.3333333,25.6666667 L21.3333333,25.6666667 Z" id="Shape" transform="translate(23.000000, 24.000000) rotate(-180.000000) translate(-23.000000, -24.000000) "></path>
                <g id="Shape-+-Shape-+-Shape" transform="translate(47.000000, 13.000000)">
                    <path d="M0,0 L0,20 L20,20 L20,0 L0,0 L0,0 Z M1.42857143,2 L18.5714286,2 L18.5714286,18 L1.42857143,18 L1.42857143,2 L1.42857143,2 Z" id="Shape"></path>
                    <path d="M2.85714286,13.7583464 C2.85714286,14.6716127 3.14285714,15.4810987 3.58571429,16 L17.1428571,16 L17.1428571,4.02375823 C16.7857143,3.91997797 16.8571429,4.18980664 16.4857143,4.18980664 C14.7857143,4.18980664 13.4714286,5.31063343 12.4714286,7.07489781 C12.2857143,6.14087549 11.6857143,5.45592579 10.9857143,5.45592579 C10.1428571,5.45592579 9.45714286,6.47297232 9.45714286,7.69757936 L9.47142857,8.00892013 L9.45714286,8.00892013 C7.81428571,8.00892013 6.44285714,9.62789216 6.05714286,11.8072776 C5.71428571,11.4336686 5.3,11.2053521 4.82857143,11.2053521 C3.74285714,11.2053521 2.85714286,12.1808865 2.85714286,13.7583464 L2.85714286,13.7583464 Z M4.34285714,6.68053283 C4.34285714,7.19943412 4.64285714,7.63531121 5,7.63531121 C5.35714286,7.63531121 5.65714286,7.19943412 5.65714286,6.68053283 C5.65714286,6.14087549 5.35714286,5.72575446 5,5.72575446 C4.64285714,5.72575446 4.34285714,6.14087549 4.34285714,6.68053283 L4.34285714,6.68053283 Z" id="Shape"></path>
                </g>
                <g id="Shape">
                    <path d="M10,0 C5,0 0,5.71428571 0,11.4285714 L0,68.5714286 C0,74.2857143 5,80 10,80 L70,80 C75,80 80,74.2857143 80,68.5714286 L80,11.4285714 C80,5.71428571 75,0 70,0 L10,0 L10,0 Z M5,5.71428571 L75,5.71428571 L75,74.2857143 L5,74.2857143 L5,5.71428571 L5,5.71428571 Z"></path>
                </g>
                <path d="M47,47 L47,67 L67,67 L67,47 L47,47 L47,47 Z M48.6666667,48.8181818 L50.3333333,48.8181818 L50.3333333,50.6363636 L48.6666667,50.6363636 L48.6666667,48.8181818 L48.6666667,48.8181818 Z M63.6666667,48.8181818 L65.3333333,48.8181818 L65.3333333,50.6363636 L63.6666667,50.6363636 L63.6666667,48.8181818 L63.6666667,48.8181818 Z M48.6666667,52.4545455 L50.3333333,52.4545455 L50.3333333,54.2727273 L48.6666667,54.2727273 L48.6666667,52.4545455 L48.6666667,52.4545455 Z M63.6666667,52.4545455 L65.3333333,52.4545455 L65.3333333,54.2727273 L63.6666667,54.2727273 L63.6666667,52.4545455 L63.6666667,52.4545455 Z M48.6666667,56.0909091 L50.3333333,56.0909091 L50.3333333,57.9090909 L48.6666667,57.9090909 L48.6666667,56.0909091 L48.6666667,56.0909091 Z M63.6666667,56.0909091 L65.3333333,56.0909091 L65.3333333,57.9090909 L63.6666667,57.9090909 L63.6666667,56.0909091 L63.6666667,56.0909091 Z M48.6666667,59.7272727 L50.3333333,59.7272727 L50.3333333,61.5454545 L48.6666667,61.5454545 L48.6666667,59.7272727 L48.6666667,59.7272727 Z M63.6666667,59.7272727 L65.3333333,59.7272727 L65.3333333,61.5454545 L63.6666667,61.5454545 L63.6666667,59.7272727 L63.6666667,59.7272727 Z M48.6666667,63.3636364 L50.3333333,63.3636364 L50.3333333,65.1818182 L48.6666667,65.1818182 L48.6666667,63.3636364 L48.6666667,63.3636364 Z M63.6666667,63.3636364 L65.3333333,63.3636364 L65.3333333,65.1818182 L63.6666667,65.1818182 L63.6666667,63.3636364 L63.6666667,63.3636364 Z M52,48.8181818 L62,48.8181818 L62,56.0909091 L52,56.0909091 L52,48.8181818 L52,48.8181818 Z M52,57.9090909 L62,57.9090909 L62,65.1818182 L52,65.1818182 L52,57.9090909 L52,57.9090909 Z" id="Shape"></path>
                <path d="M16.6363636,67 C18.2181818,67 19.5636364,66.16 20.0545455,65 C20.2,64.68 20.2727273,64.36 20.2727273,64 L20.2727273,53 L31.1818182,53 L31.1818182,61.4 C30.6545455,61.14 30.0181818,61 29.3636364,61 C27.3636364,61 25.7272727,62.34 25.7272727,64 C25.7272727,65.66 27.3636364,67 29.3636364,67 C31.3636364,67 33,65.66 33,64 C33,63.64 32.9272727,63.32 32.7818182,63 L33,63 L33,51 C33,49 31.1818182,47 29.3636364,47 L22.0909091,47 C20.2727273,47 18.4545455,49 18.4545455,51 L18.4545455,53 L18.4545455,61.4 C17.9272727,61.14 17.2909091,61 16.6363636,61 C14.6363636,61 13,62.34 13,64 C13,65.66 14.6363636,67 16.6363636,67 L16.6363636,67 Z M20.0545455,65 L20.2727273,65 L20.2727273,64 C20.2727273,64.36 20.2,64.68 20.0545455,65 L20.0545455,65 Z" id="Shape"></path>
            </g>
        </g>
    </g>
</svg>